<svg xmlns="http://www.w3.org/2000/svg"
 xmlns:xlink="http://www.w3.org/1999/xlink"
 width="26px" height="15px"  viewBox="0 0 26 15">
<path fill-rule="evenodd"  fill="#ffffff"
 d="M23.701477,9.178711 C23.324585,8.78772 22.714478,8.787842 22.33783,9.178711 C22.33783,9.178711 20.985596,10.582153 20.985596,10.582153 C20.985596,10.582153 20.985596,3.0009766 20.985596,3.0009766 C20.985596,2.4482422 20.554016,1.9997559 20.021362,1.9997559 C20.021362,1.9997559 10.582092,1.9997559 10.582092,1.9997559 C10.049561,1.9997559 9.617798,2.4482422 9.617798,3.0009766 C9.617798,3.5533447 10.049561,4.001709 10.582092,4.001709 C10.582092,4.001709 19.05719,4.001709 19.05719,4.001709 C19.05719,4.001709 19.05719,10.582153 19.05719,10.582153 C19.05719,10.582153 17.704956,9.178345 17.704956,9.178345 C17.32837,8.7873535 16.71814,8.7873535 16.341492,9.178101 C15.964844,9.569336 15.9646,10.202026 16.341309,10.593628 C16.341309,10.593628 19.339233,13.705566 19.339233,13.705566 C19.520508,13.893555 19.765503,13.998657 20.021362,13.998657 C20.277527,13.998657 20.522339,13.893066 20.703552,13.705566 C20.703552,13.705566 23.70166,10.593628 23.70166,10.593628 C24.078186,10.203003 24.078186,9.569336 23.701477,9.178711 ZM15.400879,11.998047 C15.400879,11.998047 6.9259644,11.998047 6.9259644,11.998047 C6.9259644,11.998047 6.9259644,5.4174805 6.9259644,5.4174805 C6.9259644,5.4174805 8.278198,6.821045 8.278198,6.821045 C8.466553,7.0164795 8.713257,7.114258 8.960205,7.114258 C9.207275,7.114258 9.453796,7.0164795 9.642151,6.821045 C10.018738,6.430298 10.018738,5.7963867 9.642334,5.4057617 C9.642334,5.4057617 6.6434937,2.293335 6.6434937,2.293335 C6.4625244,2.1055908 6.2175293,2.000122 5.961548,2.000122 C5.7054443,2.000122 5.460388,2.1055908 5.279358,2.293335 C5.279358,2.293335 2.2814941,5.4057617 2.2814941,5.4057617 C1.9049683,5.7963867 1.9049683,6.4300537 2.2816772,6.821045 C2.6585693,7.212158 3.2684326,7.211792 3.6453247,6.821045 C3.6453247,6.821045 4.9975586,5.4174805 4.9975586,5.4174805 C4.9975586,5.4174805 4.9975586,12.998901 4.9975586,12.998901 C4.9975586,13.55127 5.429199,13.999634 5.961792,13.999634 C5.961792,13.999634 15.401123,13.999634 15.401123,13.999634 C15.933716,13.999634 16.365356,13.55127 16.365356,12.998901 C16.365173,12.446289 15.933716,11.998047 15.400879,11.998047 Z"/>
</svg>